<svg width="16" height="16" viewBox="0 0 16 16" fill="none" xmlns="http://www.w3.org/2000/svg">
<path d="M6.46478 7.09209C6.50878 6.83209 6.58878 6.60009 6.70478 6.39609C6.82078 6.19209 6.98078 6.02809 7.17678 5.90409C7.36478 5.78809 7.60078 5.72409 7.89278 5.72009C8.08478 5.72409 8.26078 5.75609 8.41278 5.82409C8.57678 5.89609 8.71278 5.99209 8.82878 6.11209C8.94478 6.23209 9.03278 6.37609 9.09678 6.53609C9.16078 6.69609 9.19678 6.86809 9.20478 7.04809H10.6368C10.6248 6.67209 10.5488 6.32809 10.4168 6.01609C10.2848 5.70409 10.0928 5.43609 9.85278 5.20809C9.61278 4.98009 9.32478 4.80809 8.98878 4.68409C8.65278 4.56009 8.28078 4.49609 7.87278 4.49609C7.35278 4.49609 6.90078 4.58409 6.51678 4.76409C6.13278 4.94409 5.81278 5.18809 5.55678 5.50009C5.30078 5.81209 5.10878 6.17209 4.98478 6.58409C4.86078 6.99609 4.80078 7.43209 4.80078 7.89209V8.1121C4.80078 8.5761 4.86478 9.01209 4.98878 9.42409C5.11278 9.83609 5.30478 10.1961 5.56078 10.5041C5.81678 10.8121 6.13678 11.0561 6.52478 11.2361C6.91278 11.4161 7.36478 11.5041 7.88478 11.5041C8.26078 11.5041 8.61278 11.4441 8.94078 11.3201C9.26878 11.1961 9.55678 11.0281 9.80478 10.8121C10.0528 10.5961 10.2528 10.3481 10.3968 10.0601C10.5408 9.7721 10.6248 9.4681 10.6368 9.1401H9.20478C9.19678 9.3081 9.15678 9.4601 9.08478 9.6041C9.01278 9.7481 8.91678 9.8681 8.79678 9.9681C8.67678 10.0681 8.53678 10.1481 8.37678 10.2041C8.22478 10.2561 8.06478 10.2841 7.89278 10.2841C7.60478 10.2761 7.36878 10.2161 7.17678 10.0961C6.97678 9.96809 6.81678 9.8041 6.70078 9.6001C6.58478 9.3961 6.50478 9.16409 6.46078 8.90009C6.41678 8.63609 6.40078 8.3801 6.40078 8.1121V7.89209C6.40078 7.62009 6.42078 7.35209 6.46478 7.09209Z" fill="white"/>
<path d="M8 0C3.58 0 0 3.58 0 8C0 12.42 3.58 16 8 16C12.42 16 16 12.42 16 8C16 3.58 12.42 0 8 0ZM8 14.4C4.472 14.4 1.6 11.528 1.6 8C1.6 4.472 4.472 1.6 8 1.6C11.528 1.6 14.4 4.472 14.4 8C14.4 11.528 11.528 14.4 8 14.4Z" fill="white"/>
</svg>
