<svg width="22" height="28" viewBox="0 0 22 28" fill="none" xmlns="http://www.w3.org/2000/svg">
<path d="M8.33172 15.9953C8.2668 16.1718 8.18154 16.3242 8.07594 16.4515C7.9713 16.5808 7.84341 16.6811 7.69226 16.7533C7.54112 16.8254 7.35606 16.8605 7.14 16.8605C6.83674 16.8605 6.58581 16.7924 6.38428 16.657C6.18275 16.5197 6.02192 16.3402 5.90178 16.1146C5.78164 15.8911 5.69444 15.6364 5.64018 15.3567C5.58496 15.077 5.5588 14.7912 5.5588 14.5025C5.5588 14.2128 5.58496 13.929 5.64018 13.6473C5.69444 13.3656 5.78164 13.113 5.90178 12.8894C6.02192 12.6638 6.18275 12.4843 6.38428 12.347C6.58581 12.2096 6.83771 12.1435 7.14 12.1435C7.40257 12.1435 7.61863 12.1946 7.78527 12.2979C7.95192 12.4031 8.08562 12.5234 8.18639 12.6598C8.28715 12.7971 8.35691 12.9335 8.39566 13.0749C8.43442 13.2142 8.46155 13.3255 8.47705 13.4057H10.9651C10.8566 12.3229 10.4904 11.4868 9.86545 10.8973C9.24149 10.3078 8.35594 10.008 7.20976 10C6.56643 10 5.98607 10.1073 5.4716 10.3248C4.95616 10.5404 4.51435 10.8462 4.14618 11.2392C3.77801 11.6322 3.4951 12.1044 3.29744 12.6588C3.09979 13.2112 3 13.8268 3 14.4995C3 15.1321 3.09398 15.7256 3.27904 16.274C3.46506 16.8244 3.73925 17.2977 4.09967 17.6997C4.46009 18.1017 4.899 18.4185 5.41831 18.6511C5.93763 18.8817 6.53445 19 7.20976 19C7.81434 19 8.35303 18.8947 8.82585 18.6872C9.29769 18.4777 9.69493 18.204 10.0166 17.8631C10.3383 17.5222 10.5824 17.1382 10.7491 16.7142C10.9157 16.2911 11 15.86 11 15.4279H8.48771C8.44992 15.6284 8.39857 15.8199 8.33172 15.9953Z" fill="white"/>
<path d="M14.9995 15.458H14.9761L13.6038 10H11L13.4982 19H16.3835L19 10H16.3483L14.9995 15.458Z" fill="white"/>
<path d="M17.7755 0H0.21875V28H21.7819V3.88459L17.7755 0ZM19.9176 26.1351H2.08306V1.86431H16.8148V4.82234H19.917L19.9176 26.1351Z" fill="white"/>
</svg>
