<svg width="21" height="20" viewBox="0 0 21 20" fill="none" xmlns="http://www.w3.org/2000/svg">
<path d="M19.8922 19.3966C18.7153 19.3686 17.5663 19.3686 16.3894 19.3966C16.1372 19.3966 16.0812 19.3406 16.0812 19.0884C16.0812 17.0148 16.0812 14.9131 16.0812 12.8395C16.0812 12.3631 16.0532 11.8868 15.9131 11.4384C15.4927 9.98126 13.8114 9.44884 12.6065 10.4296C11.962 10.934 11.7098 11.6346 11.7098 12.4752C11.7098 14.4368 11.7098 16.3983 11.7098 18.3598C11.7098 18.612 11.6817 18.8642 11.7098 19.1444C11.7378 19.3686 11.6257 19.4247 11.4295 19.3966C10.2246 19.3966 9.04767 19.3966 7.84272 19.3966C7.61854 19.3966 7.5625 19.3406 7.5625 19.1164C7.59052 17.351 7.59052 15.5857 7.59052 13.7922C7.59052 11.6065 7.59052 9.42082 7.5625 7.26313C7.5625 7.01093 7.61854 6.95489 7.84272 6.95489C9.04767 6.95489 10.2246 6.95489 11.4295 6.95489C11.6537 6.95489 11.7098 7.01093 11.7098 7.23511C11.7098 7.68346 11.7098 8.13181 11.7098 8.66423C11.7938 8.58016 11.8218 8.55214 11.8499 8.52412C12.9427 6.92686 14.4839 6.47851 16.3054 6.75873C18.407 7.095 19.7521 8.55214 20.0883 10.7939C20.1724 11.3263 20.2004 11.8587 20.2004 12.3911C20.2004 14.6329 20.2004 16.8466 20.2004 19.0884C20.2004 19.3126 20.1444 19.3966 19.8922 19.3966Z" fill="white"/>
<path d="M5.3204 13.1757C5.3204 15.1373 5.3204 17.0988 5.3204 19.0603C5.3204 19.3125 5.26436 19.3966 5.01216 19.3966C3.83524 19.3686 2.65832 19.3966 1.48139 19.3966C1.25722 19.3966 1.20117 19.3406 1.20117 19.1164C1.20117 15.1653 1.20117 11.1862 1.20117 7.23505C1.20117 7.0389 1.25722 6.95483 1.48139 6.95483C2.68634 6.95483 3.89128 6.95483 5.09623 6.95483C5.34843 6.95483 5.37645 7.0389 5.37645 7.26308C5.3204 9.22461 5.3204 11.1862 5.3204 13.1757Z" fill="white"/>
<path d="M5.51652 3.70435C5.2363 4.82523 4.08739 5.46973 2.77036 5.24556C1.36926 5.02138 0.584648 3.6483 1.08904 2.30325C1.42531 1.46259 2.23794 0.958195 3.27476 0.986217C4.84399 0.958195 5.8808 2.21918 5.51652 3.70435Z" fill="white"/>
</svg>
