<svg width="72" height="51" viewBox="0 0 72 51" fill="none" xmlns="http://www.w3.org/2000/svg">
<path fill-rule="evenodd" clip-rule="evenodd" d="M6.48345 48.2568L6.49472 48.2603C7.00761 48.4181 7.54178 48.5535 8.0975 48.6662C7.76344 48.4971 7.44312 48.3051 7.13714 48.0898L7.11977 48.0776L7.10293 48.0646C5.71299 46.9955 4.48089 45.4335 3.38351 43.4396C3.38248 43.4377 3.38145 43.4358 3.38042 43.4339L2.06779 41.1177L2.02185 46.5841C3.39128 47.2457 4.87402 47.8028 6.4721 48.2536L6.48345 48.2568ZM1.01664 47.2L1.08864 38.632H1.80864L4.25664 42.952C5.31264 44.872 6.46464 46.312 7.71264 47.272C9.00864 48.184 10.6406 48.64 12.6086 48.64C14.9126 48.64 16.7606 48.136 18.1526 47.128C19.5926 46.072 20.3126 44.68 20.3126 42.952C20.3126 41.368 19.8086 40.072 18.8006 39.064C17.7926 38.056 15.9206 37.144 13.1846 36.328L10.1606 35.392C7.23264 34.528 4.92864 33.184 3.24864 31.36C1.56864 29.536 0.728638 27.304 0.728638 24.664C0.728638 21.496 1.97664 18.808 4.47264 16.6C6.96864 14.392 10.5446 13.288 15.2006 13.288C17.0726 13.288 18.8246 13.504 20.4566 13.936C22.1366 14.32 23.7446 14.92 25.2806 15.736L24.8486 23.512H24.1286L21.6086 19.048C20.6966 17.464 19.7846 16.36 18.8726 15.736C18.0086 15.064 16.6886 14.728 14.9126 14.728C13.2806 14.728 11.7446 15.184 10.3046 16.096C8.86464 17.008 8.14464 18.304 8.14464 19.984C8.14464 21.616 8.74464 22.912 9.94464 23.872C11.1926 24.832 13.0166 25.72 15.4166 26.536L18.6566 27.472C22.1126 28.528 24.5846 29.992 26.0726 31.864C27.5606 33.688 28.3046 35.896 28.3046 38.488C28.3046 41.992 26.9126 44.8 24.1286 46.912C21.3926 49.024 17.5286 50.08 12.5366 50.08C10.1846 50.08 8.07264 49.792 6.20064 49.216C4.32864 48.688 2.60064 48.016 1.01664 47.2ZM18.3718 28.4306L15.1168 27.4903L15.0947 27.4828C12.6462 26.6503 10.7063 25.7196 9.33493 24.6646L9.32738 24.6588L9.31994 24.6529C7.86629 23.49 7.14464 21.8981 7.14464 19.984C7.14464 17.9553 8.04524 16.3433 9.76959 15.2512C10.0857 15.051 10.4069 14.8702 10.733 14.7091C8.4173 15.1925 6.5642 16.0849 5.13521 17.349C2.84114 19.3784 1.72864 21.799 1.72864 24.664C1.72864 27.0708 2.4859 29.0558 3.98418 30.6826C5.51616 32.3458 7.64925 33.6083 10.4437 34.4329L10.4563 34.4367L13.4704 35.3697C13.4721 35.3702 13.4738 35.3707 13.4754 35.3712C16.2386 36.1957 18.3148 37.164 19.5077 38.3569C20.7249 39.5741 21.3126 41.1351 21.3126 42.952C21.3126 45.0109 20.4308 46.6975 18.744 47.9344L18.7392 47.938C18.3729 48.2032 17.9828 48.4357 17.57 48.6368C20.0007 48.1621 21.9729 47.3128 23.5176 46.1204L23.5242 46.1153C26.0582 44.193 27.3046 41.6802 27.3046 38.488C27.3046 36.1015 26.6252 34.1233 25.2978 32.4962L25.2898 32.4863C23.9779 30.836 21.723 29.4556 18.3718 28.4306ZM19.0326 14.6367C19.1824 14.7263 19.3256 14.8232 19.462 14.9277C20.5438 15.6764 21.5385 16.922 22.4753 18.5491L22.4795 18.5564L23.9752 21.206L24.2461 16.3307C22.9596 15.7013 21.6226 15.2283 20.2338 14.9109L20.2172 14.9071L20.2007 14.9027C19.8191 14.8017 19.4297 14.713 19.0326 14.6367Z" fill="#00FFFF"/>
<path fill-rule="evenodd" clip-rule="evenodd" d="M24.936 4.032C25.896 4.32 26.568 4.704 26.952 5.184C27.336 5.664 27.528 6.384 27.528 7.344V45.864C27.528 47.688 26.712 48.864 25.08 49.392L24 49.752V50.472H41.208V49.752L40.2 49.464C38.616 48.984 37.824 47.784 37.824 45.864V10.728L38.04 0.648001L37.176 0L24 3.096V3.816L24.936 4.032ZM26.4385 3.55025C26.9578 3.81529 27.4015 4.14511 27.7329 4.55931C28.319 5.29197 28.528 6.27716 28.528 7.344V45.864C28.528 46.9239 28.29 47.888 27.7376 48.6841C27.5307 48.9822 27.2885 49.2442 27.0153 49.472H38.1941C37.9649 49.2618 37.7604 49.023 37.5834 48.7548C37.0488 47.9449 36.824 46.9556 36.824 45.864V32.6905L36.5709 32.3351L36.824 32.1011V10.7173L37.0292 1.13992L36.9498 1.08038L26.4385 3.55025ZM37.896 32.472L50.712 50.472H63.384V49.752L63.096 49.608C62.9748 49.5639 62.8562 49.5186 62.74 49.472C61.8442 49.1126 61.0989 48.6779 60.504 48.168C59.832 47.592 59.112 46.776 58.344 45.72L45.456 27.792L53.52 20.232C54.432 19.416 55.2 18.792 55.824 18.36C56.496 17.88 57.36 17.472 58.416 17.136L60.576 16.56V15.84H49.848V16.56L51.072 16.92C52.032 17.208 52.44 17.688 52.296 18.36C52.2 18.984 51.84 19.584 51.216 20.16L37.896 32.472ZM44.3075 27.9075L39.2211 32.6089L51.2276 49.472H60.5749C60.319 49.3015 60.0782 49.1201 59.8532 48.9273C59.1013 48.2828 58.3296 47.4004 57.5353 46.3082L57.532 46.3037L44.3075 27.9075ZM51.8948 20.8943C52.3212 20.5006 52.6743 20.0679 52.9227 19.5949C52.926 19.5885 52.9294 19.582 52.9327 19.5756C52.9791 19.486 53.0218 19.3949 53.0605 19.3024C53.8974 18.5625 54.6285 17.972 55.2488 17.542C55.6087 17.2854 56.0081 17.052 56.4441 16.84H52.8528C52.8552 16.8428 52.8576 16.8456 52.8599 16.8484C53.2783 17.3405 53.4001 17.9415 53.28 18.5395C53.237 18.804 53.1626 19.0583 53.0605 19.3024C52.9921 19.3629 52.923 19.4243 52.8532 19.4868L52.8445 19.4945L52.8361 19.5025" fill="#00FFFF"/>
<path fill-rule="evenodd" clip-rule="evenodd" d="M64.8164 38.1188C64.58 38.149 64.3586 38.1641 64.1523 38.1641C62.3945 38.1641 60.9297 37.5859 59.7578 36.4297C58.5859 35.2734 58 33.8242 58 32.082C58 30.3867 58.5898 28.9492 59.7695 27.7695C60.957 26.5898 62.3984 26 64.0938 26C65.9844 26 67.4727 26.5547 68.5586 27.6641C69.6523 28.7656 70.1992 30.2734 70.1992 32.1875V37.918H65.8164V32.5039C65.8164 32.3124 65.8017 32.133 65.7724 31.9655C65.7072 31.5933 65.5695 31.2806 65.3594 31.0273C65.0625 30.6602 64.6602 30.4766 64.1523 30.4766C63.6914 30.4766 63.293 30.6445 62.957 30.9805C62.6211 31.3164 62.4531 31.7148 62.4531 32.1758C62.4531 32.6602 62.6055 33.0586 62.9102 33.3711C63.2148 33.6836 63.6016 33.8398 64.0703 33.8398C64.0925 33.8398 64.1147 33.8395 64.1367 33.8388C64.374 33.8314 64.6005 33.7844 64.8164 33.6977C64.9259 33.6537 65.0327 33.5996 65.1367 33.5352V38.0703C65.027 38.0894 64.9203 38.1056 64.8164 38.1188ZM66.099 38.918L65.3081 39.0555C64.9044 39.1257 64.5179 39.1641 64.1523 39.1641C62.1513 39.1641 60.428 38.4958 59.0555 37.1415C57.6811 35.7855 57 34.0744 57 32.082C57 30.1263 57.6918 28.433 59.0624 27.0624L59.0648 27.0601C60.4423 25.6916 62.1382 25 64.0938 25C66.1893 25 67.9572 25.6216 69.2707 26.962C70.5901 28.2923 71.1992 30.076 71.1992 32.1875V38.918H66.099ZM64.8164 32.5573V32.5039C64.8164 32.0504 64.7065 31.8065 64.5898 31.6659L64.5817 31.6561C64.4905 31.5433 64.3843 31.4766 64.1523 31.4766C63.9656 31.4766 63.819 31.5327 63.6641 31.6876C63.5093 31.8424 63.4531 31.989 63.4531 32.1758C63.4531 32.4306 63.5243 32.5685 63.6262 32.673C63.7277 32.7771 63.849 32.8398 64.0703 32.8398C64.2656 32.8398 64.439 32.791 64.6104 32.6849L64.8164 32.5573Z" fill="#00FFFF"/>
</svg>
