<svg width="73" height="51" viewBox="0 0 73 51" fill="none" xmlns="http://www.w3.org/2000/svg">
<path fill-rule="evenodd" clip-rule="evenodd" d="M8.43179 47.7131C9.57912 48.3219 10.9474 48.6308 12.5366 48.6398C12.5606 48.64 12.5846 48.64 12.6086 48.64C14.4439 48.64 15.9898 48.3202 17.2464 47.6807C17.5674 47.5173 17.8694 47.3331 18.1526 47.128C19.5926 46.072 20.3126 44.68 20.3126 42.952C20.3126 41.368 19.8086 40.072 18.8006 39.064C17.7926 38.056 15.9206 37.144 13.1846 36.328L10.1606 35.392C7.23264 34.528 4.92864 33.184 3.24864 31.36C1.56864 29.536 0.728638 27.304 0.728638 24.664C0.728638 21.496 1.97664 18.808 4.47264 16.6C6.02973 15.2226 8.00714 14.2748 10.4048 13.7567C11.771 13.4614 13.2736 13.3057 14.9126 13.2894C15.0082 13.2885 15.1042 13.288 15.2006 13.288C16.6706 13.288 18.0666 13.4212 19.3886 13.6876C19.7502 13.7604 20.1062 13.8433 20.4566 13.936C22.1366 14.32 23.7446 14.92 25.2806 15.736L24.8486 23.512H24.1286L21.6086 19.048C20.6966 17.464 19.7846 16.36 18.8726 15.736C18.8052 15.6836 18.735 15.6332 18.662 15.5848C17.8511 15.0476 16.6973 14.763 15.2006 14.7311C15.106 14.729 15.01 14.728 14.9126 14.728C13.5642 14.728 12.2813 15.0393 11.064 15.6619C10.808 15.7929 10.5548 15.9376 10.3046 16.096C8.86464 17.008 8.14464 18.304 8.14464 19.984C8.14464 21.616 8.74464 22.912 9.94464 23.872C11.1926 24.832 13.0166 25.72 15.4166 26.536L18.6566 27.472C22.1126 28.528 24.5846 29.992 26.0726 31.864C27.5606 33.688 28.3046 35.896 28.3046 38.488C28.3046 41.992 26.9126 44.8 24.1286 46.912C22.4655 48.1959 20.3855 49.0895 17.8886 49.5929C16.2978 49.9137 14.5378 50.076 12.6086 50.08C12.5847 50.08 12.5607 50.08 12.5366 50.08C10.8192 50.08 9.22976 49.9265 7.76827 49.6194C7.22825 49.5059 6.70572 49.3714 6.20064 49.216C4.32864 48.688 2.60064 48.016 1.01664 47.2L1.08864 38.632H1.80864L4.25664 42.952C5.31264 44.872 6.46464 46.312 7.71264 47.272C7.94184 47.4333 8.18157 47.5804 8.43179 47.7131ZM3.03659 44.8344C3.37721 45.3915 3.73256 45.9158 4.1037 46.4043C3.73698 46.2595 3.37817 46.108 3.02721 45.9499L3.03659 44.8344ZM21.5477 46.2136C22.0391 45.9447 22.4915 45.6492 22.9065 45.3288L22.9132 45.3237L22.9199 45.3186C25.2038 43.586 26.3046 41.3684 26.3046 38.488C26.3046 36.307 25.6898 34.5586 24.5229 33.1283L24.5149 33.1184L24.507 33.1085C23.3711 31.6795 21.3328 30.383 18.0865 29.3891L14.8169 28.4445L14.7728 28.4296C12.2758 27.5806 10.22 26.6071 8.72522 25.4573L8.71012 25.4457L8.69525 25.4338C6.98794 24.0679 6.14464 22.1802 6.14464 19.984C6.14464 19.0718 6.30383 18.2257 6.61351 17.4575C6.32461 17.6586 6.05291 17.8723 5.79779 18.098C3.70564 19.9488 2.72864 22.1019 2.72864 24.664C2.72864 26.8375 3.40315 28.5757 4.71973 30.0051C6.10368 31.5077 8.06587 32.6886 10.7267 33.4738L10.7394 33.4775L13.7662 34.4144C16.557 35.2476 18.8372 36.2722 20.2149 37.6498C21.6413 39.0762 22.3126 40.9022 22.3126 42.952C22.3126 44.148 22.0512 45.2417 21.5477 46.2136ZM22.4456 16.6325C22.6929 16.9856 22.9326 17.359 23.1657 17.7495L23.2101 16.9506C22.9572 16.8383 22.7024 16.7323 22.4456 16.6325Z" fill="#00FFFF"/>
<path fill-rule="evenodd" clip-rule="evenodd" d="M27.2884 4.61275C27.564 4.78505 27.7852 4.97546 27.952 5.184C28.336 5.664 28.528 6.384 28.528 7.344V45.864C28.528 46.9728 28.2265 47.8421 27.6234 48.472C27.2344 48.8783 26.7199 49.185 26.08 49.392L25 49.752V50.472H42.208V49.752L41.2 49.464C40.5317 49.2615 40.0044 48.9308 39.6181 48.472C39.0887 47.8433 38.824 46.974 38.824 45.864V10.728L39.04 0.648001L38.176 0L25 3.096V3.816L25.936 4.032C26.4789 4.19488 26.9297 4.38846 27.2884 4.61275ZM29.6145 4.06618C30.3215 5.02983 30.528 6.22195 30.528 7.344V45.864C30.528 46.7703 30.3748 47.66 30.0039 48.472H37.3043C36.9613 47.6575 36.824 46.7674 36.824 45.864V33.0101L36.2458 32.1981L36.824 31.6637V10.7066L37.0035 2.32998L29.6145 4.06618ZM38.896 32.472L51.712 50.472H64.384V49.752L64.096 49.608C63.2316 49.2937 62.4958 48.915 61.8887 48.472C61.7541 48.3738 61.6259 48.2725 61.504 48.168C60.832 47.592 60.112 46.776 59.344 45.72L46.456 27.792L53.3205 21.3565L53.3213 21.3558L54.52 20.232C54.6438 20.1213 54.7649 20.0141 54.8833 19.9104C55.6378 19.2502 56.2847 18.7334 56.824 18.36C57.0815 18.1761 57.3671 18.0028 57.6809 17.84C58.1862 17.5779 58.7646 17.3433 59.416 17.136L61.576 16.56V15.84H50.848V16.56L52.072 16.92C52.7628 17.1272 53.1678 17.4339 53.2869 17.84C53.3334 17.9982 53.3364 18.1716 53.296 18.36C53.2774 18.4809 53.2489 18.6009 53.2105 18.72C53.2067 18.7318 53.2028 18.7436 53.1988 18.7553C53.1932 18.7717 53.1875 18.788 53.1816 18.8043C53.0124 19.2701 52.6905 19.722 52.216 20.16L38.896 32.472ZM45.1557 29.4096L41.5462 32.7459L52.7432 48.472H58.9822C58.5624 47.9982 58.1441 47.4705 57.7265 46.8963L57.72 46.8874L45.1557 29.4096Z" fill="#00FFFF"/>
<path fill-rule="evenodd" clip-rule="evenodd" d="M59.7695 27.7695C58.5898 28.9492 58 30.3867 58 32.082C58 33.8242 58.5859 35.2734 59.7578 36.4297C60.8542 37.5115 62.2071 38.0872 63.8164 38.1569C63.9272 38.1617 64.0391 38.1641 64.1523 38.1641C64.4492 38.1641 64.7773 38.1328 65.1367 38.0703V33.5352C64.8086 33.7383 64.4531 33.8398 64.0703 33.8398C63.9828 33.8398 63.8982 33.8344 63.8164 33.8235C63.5622 33.7897 63.3357 33.7033 63.1367 33.5642C63.0567 33.5084 62.9812 33.444 62.9102 33.3711C62.6055 33.0586 62.4531 32.6602 62.4531 32.1758C62.4531 31.7148 62.6211 31.3164 62.957 30.9805C63.293 30.6445 63.6914 30.4766 64.1523 30.4766C64.6602 30.4766 65.0625 30.6602 65.3594 31.0273C65.3626 31.0313 65.3658 31.0352 65.3691 31.0391C65.6673 31.405 65.8164 31.8933 65.8164 32.5039V37.918H70.1992V32.1875C70.1992 30.2734 69.6523 28.7656 68.5586 27.6641C67.4727 26.5547 65.9844 26 64.0938 26C62.3984 26 60.957 26.5898 59.7695 27.7695ZM69.9829 26.26C68.4419 24.6887 66.3945 24 64.0938 24C61.8779 24 59.9275 24.7934 58.36 26.3507L58.3553 26.3553C56.7938 27.9168 56 29.8659 56 32.082C56 34.3246 56.7763 36.2976 58.3531 37.8534C59.9264 39.4057 61.9081 40.1641 64.1523 40.1641C64.5866 40.1641 65.0314 40.1186 65.4794 40.0407L66.1853 39.918H72.1992V32.1875C72.1992 29.8784 71.5278 27.8189 69.9829 26.26Z" fill="#00FFFF"/>
</svg>
