<svg width="22" height="19" viewBox="0 0 22 19" fill="none" xmlns="http://www.w3.org/2000/svg">
<path d="M19.7238 5.05776C19.7238 5.25392 19.7238 5.45007 19.7238 5.6182C19.7238 11.4187 15.2963 18.116 7.22595 18.116C4.732 18.116 2.43419 17.3874 0.472656 16.1545C0.80892 16.1825 1.17321 16.2105 1.50947 16.2105C3.55507 16.2105 5.46057 15.51 6.97375 14.333C5.04024 14.305 3.41496 13.016 2.88255 11.2786C3.16277 11.3347 3.41496 11.3627 3.72321 11.3627C4.11551 11.3627 4.50782 11.3067 4.87211 11.1946C2.85452 10.8023 1.34134 9.03688 1.34134 6.90721C1.34134 6.87919 1.34134 6.87919 1.34134 6.85117C1.9298 7.18743 2.60233 7.38359 3.3309 7.41161C2.15397 6.62699 1.36936 5.28194 1.36936 3.74073C1.36936 2.92809 1.59354 2.1715 1.95782 1.52699C4.11551 4.18908 7.36606 5.92644 11.0089 6.1226C10.9249 5.81435 10.8968 5.45007 10.8968 5.11381C10.8968 2.67589 12.8584 0.714355 15.2963 0.714355C16.5573 0.714355 17.7062 1.24677 18.4908 2.08743C19.4996 1.89128 20.4243 1.52699 21.293 1.0226C20.9567 2.05941 20.2562 2.90007 19.3595 3.46051C20.2562 3.34842 21.0968 3.12425 21.8814 2.75996C21.321 3.65666 20.5924 4.44128 19.7238 5.05776Z" fill="white"/>
</svg>
